<svg xmlns="http://www.w3.org/2000/svg" width="240" height="180" viewBox="0 0 240 180" shape-rendering="crispEdges">
  <rect width="240" height="180" fill="#3f2415"/>
  <rect y="0" width="240" height="34" fill="#2f1a10"/>
  <rect y="34" width="240" height="92" fill="#6b3f24"/>
  <rect y="126" width="240" height="54" fill="#3a2417"/>
  <rect x="0" y="34" width="240" height="6" fill="#9f6b37"/>
  <rect x="0" y="92" width="240" height="8" fill="#4a2a19"/>
  <rect x="0" y="126" width="240" height="8" fill="#a96f36"/>
  <rect x="14" y="38" width="22" height="84" fill="#4e2e1d"/>
  <rect x="204" y="38" width="22" height="84" fill="#4e2e1d"/>
  <rect x="56" y="48" width="128" height="56" fill="#53311f"/>
  <rect x="62" y="54" width="116" height="44" fill="#7a4c2b"/>
  <rect x="76" y="64" width="36" height="24" fill="#f0c66a"/>
  <rect x="82" y="70" width="24" height="18" fill="#ffc978"/>
  <rect x="132" y="60" width="32" height="32" fill="#2d1a12"/>
  <rect x="138" y="66" width="20" height="20" fill="#f0c66a"/>
  <rect x="104" y="118" width="32" height="14" fill="#2d1b12"/>
  <rect x="76" y="132" width="88" height="8" fill="#6e4428"/>
  <rect x="0" y="144" width="240" height="8" fill="#5a371f"/>
  <rect x="0" y="160" width="240" height="20" fill="#2b1a12"/>
  <g opacity=".28">
    <rect x="0" y="146" width="20" height="4" fill="#c18a4d"/>
    <rect x="34" y="146" width="26" height="4" fill="#c18a4d"/>
    <rect x="76" y="146" width="28" height="4" fill="#c18a4d"/>
    <rect x="124" y="146" width="24" height="4" fill="#c18a4d"/>
    <rect x="174" y="146" width="30" height="4" fill="#c18a4d"/>
    <rect x="218" y="146" width="22" height="4" fill="#c18a4d"/>
  </g>
</svg>
