<svg xmlns="http://www.w3.org/2000/svg" width="240" height="180" viewBox="0 0 240 180" shape-rendering="crispEdges">
  <rect width="240" height="180" fill="#402515"/>
  <rect y="0" width="240" height="42" fill="#5f3b22"/>
  <rect y="42" width="240" height="92" fill="#7a4c2a"/>
  <rect y="134" width="240" height="46" fill="#3a2417"/>
  <rect x="18" y="34" width="204" height="92" fill="#4d2e1b"/>
  <rect x="26" y="42" width="188" height="76" fill="#956332"/>
  <rect x="26" y="42" width="188" height="8" fill="#c18945"/>
  <rect x="26" y="110" width="188" height="8" fill="#5b351e"/>
  <rect x="40" y="54" width="42" height="34" fill="#e0c27f"/>
  <rect x="44" y="58" width="34" height="26" fill="#f1d99b"/>
  <rect x="62" y="52" width="8" height="8" fill="#9b2f28"/>
  <rect x="98" y="50" width="48" height="38" fill="#d8b46f"/>
  <rect x="104" y="56" width="40" height="28" fill="#ecd19a"/>
  <rect x="118" y="48" width="8" height="8" fill="#2e6b49"/>
  <rect x="158" y="58" width="38" height="44" fill="#d6b374"/>
  <rect x="164" y="64" width="30" height="34" fill="#efd39a"/>
  <rect x="174" y="56" width="8" height="8" fill="#315f9b"/>
  <rect x="50" y="94" width="52" height="18" fill="#d1a765"/>
  <rect x="108" y="94" width="46" height="18" fill="#ead096"/>
  <rect x="0" y="136" width="240" height="8" fill="#a36b34"/>
  <rect x="0" y="154" width="240" height="26" fill="#2d1a10"/>
</svg>
