<svg xmlns="http://www.w3.org/2000/svg" width="240" height="180" viewBox="0 0 240 180" shape-rendering="crispEdges">
  <rect width="240" height="180" fill="#86b8d9"/>
  <rect y="0" width="240" height="56" fill="#9bc9e6"/>
  <rect y="56" width="240" height="58" fill="#6b9a55"/>
  <rect y="114" width="240" height="66" fill="#816243"/>
  <rect x="0" y="108" width="240" height="8" fill="#b89b6c"/>
  <rect x="18" y="58" width="46" height="54" fill="#5e3b25"/>
  <rect x="22" y="48" width="38" height="14" fill="#8d2f2b"/>
  <rect x="28" y="70" width="12" height="18" fill="#e8c06f"/>
  <rect x="46" y="74" width="10" height="22" fill="#2d1c14"/>
  <rect x="160" y="52" width="58" height="60" fill="#604127"/>
  <rect x="156" y="42" width="66" height="14" fill="#7b2b27"/>
  <rect x="172" y="68" width="14" height="18" fill="#e9c575"/>
  <rect x="194" y="74" width="12" height="22" fill="#2c1c14"/>
  <rect x="96" y="66" width="48" height="48" fill="#c5b17a"/>
  <rect x="104" y="74" width="32" height="40" fill="#7a6849"/>
  <rect x="116" y="82" width="8" height="32" fill="#2e2218"/>
  <rect x="0" y="130" width="32" height="12" fill="#b59a70"/>
  <rect x="32" y="130" width="32" height="12" fill="#9d825d"/>
  <rect x="64" y="130" width="32" height="12" fill="#c0a477"/>
  <rect x="96" y="130" width="32" height="12" fill="#a98d66"/>
  <rect x="128" y="130" width="32" height="12" fill="#c6ab7c"/>
  <rect x="160" y="130" width="32" height="12" fill="#a78a63"/>
  <rect x="192" y="130" width="48" height="12" fill="#c0a477"/>
  <rect y="142" width="240" height="38" fill="#5d4630"/>
</svg>
