<svg xmlns="http://www.w3.org/2000/svg" width="240" height="180" viewBox="0 0 240 180" shape-rendering="crispEdges">
  <rect width="240" height="180" fill="#56616a"/>
  <rect y="0" width="240" height="36" fill="#434d56"/>
  <rect y="36" width="240" height="94" fill="#75808a"/>
  <rect y="130" width="240" height="50" fill="#4a535c"/>
  <rect x="0" y="36" width="240" height="5" fill="#98a1a8"/>
  <rect x="0" y="84" width="240" height="4" fill="#66717b"/>
  <rect x="0" y="128" width="240" height="6" fill="#9ba3aa"/>
  <rect x="18" y="42" width="28" height="84" fill="#5c6872"/>
  <rect x="194" y="42" width="28" height="84" fill="#5c6872"/>
  <rect x="24" y="48" width="16" height="72" fill="#87919a"/>
  <rect x="200" y="48" width="16" height="72" fill="#87919a"/>
  <rect x="78" y="50" width="84" height="72" fill="#4c5660"/>
  <rect x="84" y="56" width="72" height="66" fill="#6f7b85"/>
  <rect x="106" y="66" width="28" height="40" fill="#2f3740"/>
  <rect x="112" y="72" width="16" height="34" fill="#a8b4bd"/>
  <rect x="0" y="142" width="34" height="12" fill="#69737c"/>
  <rect x="34" y="142" width="34" height="12" fill="#56616a"/>
  <rect x="68" y="142" width="34" height="12" fill="#7b858e"/>
  <rect x="102" y="142" width="34" height="12" fill="#5e6871"/>
  <rect x="136" y="142" width="34" height="12" fill="#737d86"/>
  <rect x="170" y="142" width="34" height="12" fill="#535d66"/>
  <rect x="204" y="142" width="36" height="12" fill="#7a838b"/>
  <rect y="154" width="240" height="26" fill="#39424a"/>
</svg>
